<svg width="74" height="14" viewBox="0 0 74 14" fill="none" xmlns="http://www.w3.org/2000/svg">
<path d="M9.52649 4.35795V0.885947H8.30849L8.15449 2.99995H1.51849L1.36449 0.885947H0.146484V4.35795H1.14049C1.82182 5.95395 2.25582 8.06328 2.44249 10.6859C2.47982 11.2926 2.68982 11.7733 3.07249 12.1279C3.46449 12.4826 3.98715 12.6599 4.64049 12.6599H8.29449V4.35795H9.52649ZM6.54449 4.35795V11.3019H5.03249C4.71515 11.3019 4.48649 11.2366 4.34649 11.1059C4.21582 10.9753 4.14115 10.7419 4.12249 10.4059C4.01049 9.01528 3.85649 7.85795 3.66049 6.93395C3.47382 6.00995 3.18915 5.15128 2.80649 4.35795H6.54449ZM11.3436 9.22995C11.857 9.78062 12.7296 10.0559 13.9616 10.0559C15.1936 10.0559 16.0663 9.78062 16.5796 9.22995C17.093 8.67928 17.3496 7.74595 17.3496 6.42995C17.3496 5.11395 17.093 4.18062 16.5796 3.62995C16.0756 3.08865 15.203 2.81795 13.9616 2.81795C12.7296 2.81795 11.857 3.08865 11.3436 3.62995C10.8303 4.18062 10.5736 5.11395 10.5736 6.42995C10.5736 7.74595 10.8303 8.67928 11.3436 9.22995ZM15.2356 8.22195C15.0116 8.53928 14.587 8.69795 13.9616 8.69795C13.3363 8.69795 12.9116 8.53928 12.6876 8.22195C12.4636 7.91395 12.3516 7.31662 12.3516 6.42995C12.3516 5.55262 12.4636 4.95528 12.6876 4.63795C12.9116 4.32995 13.3363 4.17595 13.9616 4.17595C14.587 4.17595 15.0116 4.32995 15.2356 4.63795C15.469 4.95528 15.5856 5.55262 15.5856 6.42995C15.5856 7.31662 15.469 7.91395 15.2356 8.22195ZM24.8267 13.3459L25.1907 12.0159C24.8361 11.8013 24.4861 11.6519 24.1407 11.5679C23.7954 11.4839 23.4174 11.4186 23.0067 11.3719C22.5961 11.3253 22.2507 11.2599 21.9707 11.1759C21.0747 10.9239 20.5241 10.3359 20.3187 9.41195C20.2254 9.05728 20.1647 8.71662 20.1367 8.38995H20.1647C20.3234 8.64195 20.4821 8.84728 20.6407 9.00595C20.8087 9.17395 21.0701 9.32328 21.4247 9.45395C21.7794 9.58462 22.2087 9.64995 22.7127 9.64995C23.7301 9.64995 24.4487 9.39328 24.8687 8.87995C25.2981 8.37595 25.5127 7.54528 25.5127 6.38795C25.5127 5.18395 25.2701 4.28795 24.7847 3.69995C24.2994 3.12125 23.4407 2.83195 22.2087 2.83195C21.5927 2.83195 21.0747 2.90665 20.6547 3.05595C20.2347 3.21465 19.9081 3.40595 19.6747 3.62995C19.4414 3.86325 19.2641 4.18528 19.1427 4.59595C19.0214 5.01595 18.9467 5.40328 18.9187 5.75795C18.8907 6.11262 18.8767 6.57928 18.8767 7.15795C18.8767 8.73528 19.0447 9.92995 19.3807 10.7419C19.7167 11.5633 20.3934 12.1326 21.4107 12.4499C21.6627 12.5339 22.1761 12.6366 22.9507 12.7579C23.7347 12.8886 24.3601 13.0846 24.8267 13.3459ZM22.2647 8.31995C21.6021 8.31995 21.1634 8.17528 20.9487 7.88595C20.7434 7.59662 20.6407 7.08795 20.6407 6.35995C20.6407 5.52928 20.7527 4.95995 20.9767 4.65195C21.2007 4.34395 21.6067 4.18995 22.1947 4.18995C22.7734 4.18995 23.1747 4.34395 23.3987 4.65195C23.6227 4.95995 23.7347 5.52462 23.7347 6.34595C23.7347 7.12062 23.6321 7.64328 23.4267 7.91395C23.2214 8.18462 22.8341 8.31995 22.2647 8.31995ZM27.2905 8.51595L27.1365 9.71995C28.3405 9.94395 29.4792 10.0559 30.5525 10.0559C31.4392 10.0559 32.0925 9.87862 32.5125 9.52395C32.9325 9.16928 33.1425 8.54862 33.1425 7.66195V2.99995H31.7985L31.6165 4.04995C30.8979 3.24725 30.0252 2.84595 28.9985 2.84595C28.3545 2.84595 27.8319 3.01865 27.4305 3.36395C27.0292 3.71865 26.8285 4.20862 26.8285 4.83395V5.53395C26.8285 6.08462 27.0059 6.50928 27.3605 6.80795C27.7152 7.10662 28.2145 7.25595 28.8585 7.25595H31.4345V7.67595C31.4252 8.06795 31.3365 8.32928 31.1685 8.45995C31.0005 8.59062 30.6692 8.65595 30.1745 8.65595C29.4652 8.65595 28.5039 8.60928 27.2905 8.51595ZM28.5225 5.32395V5.05795C28.5225 4.75928 28.5925 4.54462 28.7325 4.41395C28.8725 4.28328 29.1012 4.21795 29.4185 4.21795C30.0999 4.21795 30.7719 4.48862 31.4345 5.02995V6.09395H29.2505C28.9799 6.08462 28.7885 6.01462 28.6765 5.88395C28.5739 5.75328 28.5225 5.56662 28.5225 5.32395ZM39.5478 6.55595V6.51395C40.1638 6.46728 40.6072 6.29462 40.8778 5.99595C41.1485 5.69728 41.2838 5.26328 41.2838 4.69395C41.2838 4.00328 41.0692 3.53195 40.6398 3.27995C40.2198 3.02795 39.4965 2.90195 38.4698 2.90195C37.0138 2.90195 35.8658 2.92995 35.0258 2.98595V9.85995C35.7725 9.91595 36.7898 9.94395 38.0778 9.94395C39.1885 9.94395 39.9538 9.81328 40.3738 9.55195C40.8032 9.29995 41.0178 8.81928 41.0178 8.10995C41.0178 7.61528 40.9012 7.24195 40.6678 6.98995C40.4345 6.73795 40.0612 6.59328 39.5478 6.55595ZM36.6218 7.08795H38.1338C38.6192 7.08795 38.9552 7.14862 39.1418 7.26995C39.3378 7.39128 39.4358 7.61528 39.4358 7.94195C39.4358 8.23128 39.3332 8.42728 39.1278 8.52995C38.9225 8.64195 38.5492 8.69795 38.0078 8.69795H36.6218V7.08795ZM36.6218 4.16195H38.1898C38.7125 4.16195 39.0718 4.22262 39.2678 4.34395C39.4732 4.46528 39.5758 4.70328 39.5758 5.05795C39.5758 5.40328 39.4685 5.64128 39.2538 5.77195C39.0485 5.91195 38.6752 5.98195 38.1338 5.98195H36.6218V4.16195ZM49.0195 9.85995V2.99995H47.3115V8.59995H46.1775C45.9162 8.59995 45.7295 8.54395 45.6175 8.43195C45.5148 8.32928 45.4448 8.12862 45.4075 7.82995C45.1928 6.20595 45.0015 5.11395 44.8335 4.55395C44.5162 3.36865 43.6715 2.82725 42.2995 2.92995L42.1315 4.20395C42.5048 4.26928 42.7708 4.35795 42.9295 4.46995C43.0882 4.58195 43.2188 4.76862 43.3215 5.02995C43.5175 5.62728 43.6855 6.66328 43.8255 8.13795C43.8815 8.71662 44.0635 9.14595 44.3715 9.42595C44.6795 9.71528 45.1368 9.85995 45.7435 9.85995H49.0195ZM55.2793 5.71595H52.4793C52.5353 5.11862 52.6986 4.71728 52.9693 4.51195C53.2493 4.31595 53.6973 4.21795 54.3133 4.21795C55.0133 4.21795 55.8346 4.27395 56.7773 4.38595L56.9313 3.29395C56.2779 2.98595 55.3353 2.83195 54.1033 2.83195C52.8619 2.83195 51.9799 3.10725 51.4573 3.65795C50.9346 4.20862 50.6733 5.13728 50.6733 6.44395C50.6733 7.77862 50.9299 8.71195 51.4433 9.24395C51.9566 9.78528 52.8059 10.0559 53.9913 10.0559C55.0833 10.0559 55.8719 9.85528 56.3573 9.45395C56.8519 9.06195 57.0993 8.46928 57.0993 7.67595C57.1179 6.36928 56.5113 5.71595 55.2793 5.71595ZM52.4373 6.90595H54.8033C55.2139 6.90595 55.4193 7.17195 55.4193 7.70395C55.4193 8.07728 55.3213 8.33862 55.1253 8.48795C54.9293 8.63728 54.5746 8.71195 54.0613 8.71195C53.4546 8.71195 53.0393 8.58595 52.8153 8.33395C52.5913 8.09128 52.4653 7.61528 52.4373 6.90595ZM65.0342 9.85995V2.99995H63.3682V6.00995H60.3722V2.99995H58.6922V9.85995H60.3722V7.25595H63.3682V9.85995H65.0342ZM67.453 9.22995C67.9664 9.78062 68.839 10.0559 70.071 10.0559C71.303 10.0559 72.1757 9.78062 72.689 9.22995C73.2024 8.67928 73.459 7.74595 73.459 6.42995C73.459 5.11395 73.2024 4.18062 72.689 3.62995C72.185 3.08865 71.3124 2.81795 70.071 2.81795C68.839 2.81795 67.9664 3.08865 67.453 3.62995C66.9397 4.18062 66.683 5.11395 66.683 6.42995C66.683 7.74595 66.9397 8.67928 67.453 9.22995ZM71.345 8.22195C71.121 8.53928 70.6964 8.69795 70.071 8.69795C69.4457 8.69795 69.021 8.53928 68.797 8.22195C68.573 7.91395 68.461 7.31662 68.461 6.42995C68.461 5.55262 68.573 4.95528 68.797 4.63795C69.021 4.32995 69.4457 4.17595 70.071 4.17595C70.6964 4.17595 71.121 4.32995 71.345 4.63795C71.5784 4.95528 71.695 5.55262 71.695 6.42995C71.695 7.31662 71.5784 7.91395 71.345 8.22195Z" fill="white"/>
</svg>
