<svg width="14" height="14" viewBox="0 0 14 14" fill="none" xmlns="http://www.w3.org/2000/svg">
<path d="M9.60312 7.49219C10.2667 7.76198 10.8682 8.11745 11.4078 8.55859C11.9474 8.99974 12.4086 9.50469 12.7914 10.0734C13.1742 10.6422 13.4714 11.2602 13.6828 11.9273C13.8943 12.5945 14 13.2854 14 14H12.6C12.6 13.2344 12.4523 12.5107 12.157 11.8289C11.8617 11.1471 11.4607 10.5529 10.9539 10.0461C10.4471 9.53932 9.85286 9.13828 9.17109 8.84297C8.48932 8.54766 7.76562 8.4 7 8.4C6.23438 8.4 5.51068 8.54766 4.82891 8.84297C4.14714 9.13828 3.55286 9.53932 3.04609 10.0461C2.53932 10.5529 2.13828 11.1471 1.84297 11.8289C1.54766 12.5107 1.4 13.2344 1.4 14H0C0 13.2854 0.105729 12.5945 0.317187 11.9273C0.528646 11.2602 0.825781 10.6422 1.20859 10.0734C1.59141 9.50469 2.0526 8.99974 2.59219 8.55859C3.13177 8.11745 3.73333 7.76198 4.39687 7.49219C3.89375 7.09844 3.50182 6.61172 3.22109 6.03203C2.94036 5.45234 2.8 4.84167 2.8 4.2C2.8 3.62396 2.9112 3.08073 3.13359 2.57031C3.35599 2.0599 3.65677 1.6151 4.03594 1.23594C4.4151 0.856771 4.8599 0.55599 5.37031 0.333594C5.88073 0.111198 6.42396 0 7 0C7.57604 0 8.11927 0.111198 8.62969 0.333594C9.1401 0.55599 9.5849 0.856771 9.96406 1.23594C10.3432 1.6151 10.644 2.0599 10.8664 2.57031C11.0888 3.08073 11.2 3.62396 11.2 4.2C11.2 4.84167 11.0596 5.45234 10.7789 6.03203C10.4982 6.61172 10.1062 7.09844 9.60312 7.49219ZM4.2 4.2C4.2 4.58646 4.27474 4.94922 4.42422 5.28828C4.5737 5.62734 4.77422 5.92266 5.02578 6.17422C5.27734 6.42578 5.57266 6.6263 5.91172 6.77578C6.25078 6.92526 6.61354 7 7 7C7.37917 7 7.7401 6.92526 8.08281 6.77578C8.42552 6.6263 8.72266 6.42578 8.97422 6.17422C9.22578 5.92266 9.4263 5.62734 9.57578 5.28828C9.72526 4.94922 9.8 4.58646 9.8 4.2C9.8 3.82083 9.72526 3.4599 9.57578 3.11719C9.4263 2.77448 9.22578 2.47734 8.97422 2.22578C8.72266 1.97422 8.42552 1.7737 8.08281 1.62422C7.7401 1.47474 7.37917 1.4 7 1.4C6.61354 1.4 6.25078 1.47474 5.91172 1.62422C5.57266 1.7737 5.27734 1.97422 5.02578 2.22578C4.77422 2.47734 4.5737 2.77448 4.42422 3.11719C4.27474 3.4599 4.2 3.82083 4.2 4.2Z" fill="white"/>
</svg>
