<svg width="20" height="20" viewBox="0 0 20 20" fill="none" xmlns="http://www.w3.org/2000/svg">
<g clip-path="url(#clip0)">
<path d="M13.7917 10.8334C14.4167 10.8334 14.9667 10.4917 15.25 9.97508L18.2334 4.56675C18.5417 4.01675 18.1417 3.33341 17.5084 3.33341H5.17502L4.39169 1.66675H1.66669V3.33341H3.33335L6.33335 9.65842L5.20835 11.6917C4.60002 12.8084 5.40002 14.1667 6.66669 14.1667H16.6667V12.5001H6.66669L7.58335 10.8334H13.7917ZM5.96669 5.00008H16.0917L13.7917 9.16675H7.94169L5.96669 5.00008ZM6.66669 15.0001C5.75002 15.0001 5.00835 15.7501 5.00835 16.6667C5.00835 17.5834 5.75002 18.3334 6.66669 18.3334C7.58335 18.3334 8.33335 17.5834 8.33335 16.6667C8.33335 15.7501 7.58335 15.0001 6.66669 15.0001ZM15 15.0001C14.0834 15.0001 13.3417 15.7501 13.3417 16.6667C13.3417 17.5834 14.0834 18.3334 15 18.3334C15.9167 18.3334 16.6667 17.5834 16.6667 16.6667C16.6667 15.7501 15.9167 15.0001 15 15.0001Z" fill="white"/>
</g>
<defs>
<clipPath id="clip0">
<rect width="20" height="20" fill="white"/>
</clipPath>
</defs>
</svg>
