<svg width="18" height="18" viewBox="0 0 18 18" fill="none" xmlns="http://www.w3.org/2000/svg">
<path d="M4.744 9.5868H6.71709V17.7097C6.71709 17.8701 6.84704 18 7.00741 18H10.3529C10.5132 18 10.6432 17.8701 10.6432 17.7097V9.62506H12.9114C13.0589 9.62506 13.183 9.51439 13.1998 9.3679L13.5443 6.37746C13.5538 6.29518 13.5277 6.21279 13.4727 6.15106C13.4176 6.08928 13.3387 6.05392 13.256 6.05392H10.6433V4.17937C10.6433 3.61428 10.9476 3.32774 11.5477 3.32774C11.6332 3.32774 13.256 3.32774 13.256 3.32774C13.4163 3.32774 13.5463 3.19773 13.5463 3.03741V0.292471C13.5463 0.132097 13.4163 0.00214839 13.256 0.00214839H10.9017C10.8851 0.00133548 10.8483 0 10.7939 0C10.3854 0 8.96558 0.080187 7.844 1.11199C6.60131 2.2554 6.77405 3.62445 6.81533 3.86181V6.05386H4.744C4.58362 6.05386 4.45367 6.18381 4.45367 6.34419V9.29642C4.45367 9.45679 4.58362 9.5868 4.744 9.5868Z" fill="black"/>
</svg>
