<svg width="20" height="20" viewBox="0 0 20 20" fill="none" xmlns="http://www.w3.org/2000/svg">
<path d="M10.798 6.54926L6.02168 11.3255C5.67794 11.6803 5.48747 12.156 5.49137 12.65C5.49527 13.144 5.69323 13.6166 6.04254 13.9659C6.39184 14.3152 6.86448 14.5132 7.35846 14.5171C7.85243 14.521 8.32814 14.3305 8.68292 13.9868L14.9477 7.73063C15.2498 7.43573 15.4904 7.08379 15.6555 6.69522C15.8207 6.30664 15.907 5.88915 15.9096 5.46696C15.9121 5.04476 15.8309 4.62626 15.6705 4.23571C15.5101 3.84516 15.2738 3.49032 14.9752 3.19178C14.6767 2.89324 14.3219 2.65693 13.9313 2.49654C13.5408 2.33615 13.1222 2.25489 12.7001 2.25745C12.2779 2.26001 11.8604 2.34635 11.4718 2.51146C11.0832 2.67657 10.7313 2.91717 10.4364 3.21931L4.13375 9.52194C3.7074 9.93613 3.36764 10.4309 3.13422 10.9776C2.9008 11.5243 2.77838 12.1119 2.77408 12.7063C2.76978 13.3007 2.88368 13.89 3.10917 14.44C3.33465 14.99 3.66722 15.4897 4.08753 15.91C4.50784 16.3303 5.00752 16.6629 5.55751 16.8883C6.10749 17.1138 6.69682 17.2277 7.29121 17.2234C7.88561 17.2191 8.47323 17.0967 9.01989 16.8633C9.56656 16.6299 10.0614 16.2901 10.4756 15.8637L16.3651 9.97417" stroke="white" stroke-miterlimit="10" stroke-linecap="round"/>
</svg>
