<svg width="18" height="18" viewBox="0 0 18 18" fill="none" xmlns="http://www.w3.org/2000/svg">
<path d="M13.1275 0H4.87243C2.18573 0 0 2.18573 0 4.87243V13.1277C0 15.8142 2.18573 18 4.87243 18H13.1277C15.8142 18 18 15.8142 18 13.1277V4.87243C18 2.18573 15.8142 0 13.1275 0V0ZM16.9447 13.1277C16.9447 15.2324 15.2324 16.9447 13.1275 16.9447H4.87243C2.76759 16.9447 1.05523 15.2324 1.05523 13.1277V4.87243C1.05523 2.76759 2.76759 1.05523 4.87243 1.05523H13.1277C15.2324 1.05523 16.9447 2.76759 16.9447 4.87243V13.1277Z" fill="black"/>
<path d="M8.99998 4.07837C6.28608 4.07837 4.07825 6.2862 4.07825 9.0001C4.07825 11.714 6.28608 13.9218 8.99998 13.9218C11.7139 13.9218 13.9217 11.714 13.9217 9.0001C13.9217 6.2862 11.7139 4.07837 8.99998 4.07837ZM8.99998 12.8666C6.86808 12.8666 5.13348 11.1321 5.13348 9.0001C5.13348 6.8682 6.86808 5.1336 8.99998 5.1336C11.132 5.1336 12.8665 6.8682 12.8665 9.0001C12.8665 11.1321 11.132 12.8666 8.99998 12.8666Z" fill="black"/>
<path d="M14.0393 2.33032C13.2373 2.33032 12.585 2.98277 12.585 3.78463C12.585 4.58664 13.2373 5.23908 14.0393 5.23908C14.8413 5.23908 15.4938 4.58664 15.4938 3.78463C15.4938 2.98263 14.8413 2.33032 14.0393 2.33032ZM14.0393 4.18371C13.8193 4.18371 13.6403 4.00464 13.6403 3.78463C13.6403 3.5645 13.8193 3.38556 14.0393 3.38556C14.2595 3.38556 14.4385 3.5645 14.4385 3.78463C14.4385 4.00464 14.2595 4.18371 14.0393 4.18371Z" fill="black"/>
</svg>
