<svg width="24" height="24" viewBox="0 0 24 24" fill="none" xmlns="http://www.w3.org/2000/svg">
<g clip-path="url(#clip0)">
<path d="M12 0.00029308C18.6274 0.00029308 24 5.37287 24 12.0002C24 18.6276 18.6274 24.0002 12 24.0002C5.37264 24.0002 4.97744e-05 18.6276 4.97744e-05 12.0002C-0.018808 5.39166 5.32317 0.0191509 11.9317 0.00029308C11.9545 0.000227828 11.9772 0.000227828 12 0.00029308Z" fill="#3BB54A"/>
<path d="M18.647 8.69277L10.1243 17.2155L5.35156 12.4769L7.29477 10.5678L10.1243 13.3633L16.7038 6.78369L18.647 8.69277Z" fill="white"/>
<g clip-path="url(#clip1)">
<path d="M20.4844 3.5302C25.166 8.21559 25.163 15.8091 20.4776 20.4907C15.7922 25.1724 8.19879 25.1694 3.51711 20.484C-1.16195 15.8013 -1.16195 8.21299 3.51711 3.5302C8.17212 -1.15519 15.744 -1.17978 20.4294 3.47522C20.4478 3.49348 20.4661 3.51181 20.4844 3.5302Z" fill="#D7443E"/>
<path d="M17.9638 8.1298L14.0798 12.0139L17.9638 15.898L15.8855 17.9762L12.0015 14.0922L8.11742 17.9762L6.03906 15.898L9.92318 12.0139L6.03906 8.1298L8.11742 6.05151L12.0015 9.93556L15.8855 6.05151L17.9638 8.1298Z" fill="white"/>
</g>
</g>
<defs>
<clipPath id="clip0">
<rect width="24" height="24" fill="white"/>
</clipPath>
<clipPath id="clip1">
<rect width="24" height="24" fill="white"/>
</clipPath>
</defs>
</svg>
