<svg width="48" height="48" viewBox="0 0 48 48" fill="none" xmlns="http://www.w3.org/2000/svg">
<path d="M33.0892 26C34.5886 26 35.9081 25.18 36.5879 23.94L43.7452 10.96C44.485 9.64 43.5253 8 42.0059 8H12.4169L10.5376 4H4V8H7.99852L15.1958 23.18L12.4968 28.06C11.0374 30.74 12.9567 34 15.9955 34H39.9866V30H15.9955L18.1947 26H33.0892ZM14.3162 12H38.6071L33.0892 22H19.0544L14.3162 12ZM15.9955 36C13.7964 36 12.017 37.8 12.017 40C12.017 42.2 13.7964 44 15.9955 44C18.1947 44 19.9941 42.2 19.9941 40C19.9941 37.8 18.1947 36 15.9955 36ZM35.9881 36C33.7889 36 32.0096 37.8 32.0096 40C32.0096 42.2 33.7889 44 35.9881 44C38.1873 44 39.9866 42.2 39.9866 40C39.9866 37.8 38.1873 36 35.9881 36Z" fill="#252525"/>
</svg>
