<svg width="22" height="22" viewBox="0 0 22 22" fill="none" xmlns="http://www.w3.org/2000/svg">
<path d="M15.0906 11.7734C16.1333 12.1974 17.0786 12.756 17.9266 13.4492C18.7745 14.1424 19.4992 14.9359 20.1008 15.8297C20.7023 16.7234 21.1693 17.6945 21.5016 18.743C21.8339 19.7914 22 20.8771 22 22H19.8C19.8 20.7969 19.568 19.6596 19.1039 18.5883C18.6398 17.5169 18.0096 16.5831 17.2133 15.7867C16.4169 14.9904 15.4831 14.3602 14.4117 13.8961C13.3404 13.432 12.2031 13.2 11 13.2C9.79688 13.2 8.65964 13.432 7.58828 13.8961C6.51693 14.3602 5.58307 14.9904 4.78672 15.7867C3.99036 16.5831 3.36016 17.5169 2.89609 18.5883C2.43203 19.6596 2.2 20.7969 2.2 22H0C0 20.8771 0.166146 19.7914 0.498438 18.743C0.830729 17.6945 1.29766 16.7234 1.89922 15.8297C2.50078 14.9359 3.22552 14.1424 4.07344 13.4492C4.92135 12.756 5.86667 12.1974 6.90938 11.7734C6.11875 11.1547 5.50286 10.3898 5.06172 9.47891C4.62057 8.56797 4.4 7.60833 4.4 6.6C4.4 5.69479 4.57474 4.84115 4.92422 4.03906C5.2737 3.23698 5.74635 2.53802 6.34219 1.94219C6.93802 1.34635 7.63698 0.873698 8.43906 0.524219C9.24115 0.17474 10.0948 0 11 0C11.9052 0 12.7589 0.17474 13.5609 0.524219C14.363 0.873698 15.062 1.34635 15.6578 1.94219C16.2536 2.53802 16.7263 3.23698 17.0758 4.03906C17.4253 4.84115 17.6 5.69479 17.6 6.6C17.6 7.60833 17.3794 8.56797 16.9383 9.47891C16.4971 10.3898 15.8813 11.1547 15.0906 11.7734ZM6.6 6.6C6.6 7.20729 6.71745 7.77734 6.95234 8.31016C7.18724 8.84297 7.50234 9.30703 7.89766 9.70234C8.29297 10.0977 8.75703 10.4128 9.28984 10.6477C9.82266 10.8826 10.3927 11 11 11C11.5958 11 12.163 10.8826 12.7016 10.6477C13.2401 10.4128 13.707 10.0977 14.1023 9.70234C14.4977 9.30703 14.8128 8.84297 15.0477 8.31016C15.2826 7.77734 15.4 7.20729 15.4 6.6C15.4 6.00417 15.2826 5.43698 15.0477 4.89844C14.8128 4.3599 14.4977 3.89297 14.1023 3.49766C13.707 3.10234 13.2401 2.78724 12.7016 2.55234C12.163 2.31745 11.5958 2.2 11 2.2C10.3927 2.2 9.82266 2.31745 9.28984 2.55234C8.75703 2.78724 8.29297 3.10234 7.89766 3.49766C7.50234 3.89297 7.18724 4.3599 6.95234 4.89844C6.71745 5.43698 6.6 6.00417 6.6 6.6Z" fill="white"/>
</svg>
