<svg width="20" height="26" viewBox="0 0 20 26" fill="none" xmlns="http://www.w3.org/2000/svg">
<path d="M19.6572 9.08989L14.6526 7.15143C14.9143 6.40767 14.9939 5.61201 14.8848 4.83113C14.7756 4.05026 14.4808 3.30694 14.0251 2.6635C13.5694 2.02005 12.9661 1.49522 12.2657 1.13302C11.5654 0.770813 10.7884 0.581787 9.99996 0.581787C9.21149 0.581787 8.43451 0.770813 7.73416 1.13302C7.03381 1.49522 6.4305 2.02005 5.97481 2.6635C5.51912 3.30694 5.22433 4.05026 5.11515 4.83113C5.00598 5.61201 5.08559 6.40767 5.34733 7.15143L0.342708 9.08989C0.241686 9.1293 0.154917 9.19829 0.0937572 9.28784C0.0325976 9.37738 -0.000101976 9.4833 -6.09967e-05 9.59174V21.2004C-9.16661e-05 21.309 0.0327146 21.415 0.0940513 21.5047C0.155388 21.5943 0.242388 21.6632 0.343632 21.7025L9.80519 25.3702C9.86732 25.3942 9.93335 25.4065 9.99996 25.4065C10.0659 25.4052 10.131 25.3916 10.192 25.3665L10.1947 25.3702L19.6572 21.7025C19.7583 21.6631 19.8451 21.5941 19.9062 21.5045C19.9674 21.4149 20.0001 21.3089 20 21.2004V9.59174C20 9.4833 19.9673 9.37738 19.9062 9.28784C19.845 9.19829 19.7582 9.1293 19.6572 9.08989ZM17.9726 9.59174L16.2258 10.2687L13.331 9.15482C13.6608 8.85138 13.948 8.50463 14.1846 8.12405L17.9726 9.59174ZM12.272 9.90128L14.7335 10.848L13.3437 11.3865L10.7941 10.3905C11.3097 10.3072 11.8086 10.1421 12.272 9.90128ZM13.9473 12.3071L15.7557 11.6062V13.8496L15.4532 13.6524C15.3474 13.5835 15.2208 13.554 15.0954 13.5689C14.9701 13.5839 14.854 13.6424 14.7673 13.7342L13.9473 14.6044V12.3071ZM9.99996 1.67234C10.7625 1.67234 11.5079 1.89846 12.1419 2.32209C12.7759 2.74573 13.2701 3.34786 13.5619 4.05234C13.8537 4.75682 13.93 5.53201 13.7813 6.27988C13.6325 7.02776 13.2653 7.71472 12.7261 8.25391C12.1869 8.79309 11.5 9.16028 10.7521 9.30904C10.0042 9.4578 9.22904 9.38146 8.52456 9.08965C7.82008 8.79784 7.21795 8.30369 6.79431 7.66967C6.37068 7.03566 6.14456 6.29026 6.14456 5.52773C6.1457 4.50557 6.55226 3.5256 7.27504 2.80282C7.99782 2.08004 8.97779 1.67348 9.99996 1.67234ZM6.12303 8.56466L5.40241 8.28312L5.81502 8.12312C5.90957 8.2761 6.01239 8.42381 6.12303 8.56558V8.56466ZM3.91718 8.85882L11.8569 11.9625L9.99996 12.6822L2.02733 9.59174L3.91718 8.85882ZM1.07686 20.8314V10.3782L9.46149 13.6287V24.0819L1.07686 20.8314ZM10.5384 24.0819V13.6287L12.8704 12.7241V15.9613C12.8705 16.0691 12.9029 16.1745 12.9635 16.2637C13.0241 16.3529 13.1102 16.4218 13.2104 16.4616C13.2735 16.4869 13.3409 16.4998 13.4089 16.4998C13.4823 16.4998 13.555 16.4848 13.6224 16.4557C13.6898 16.4266 13.7505 16.384 13.8009 16.3305L15.2424 14.8004L16.0003 15.2927C16.0815 15.3452 16.1754 15.3748 16.272 15.3785C16.3687 15.3822 16.4645 15.3598 16.5495 15.3137C16.6345 15.2675 16.7055 15.1993 16.7551 15.1163C16.8046 15.0332 16.8308 14.9383 16.831 14.8416V11.1887L18.923 10.3782V20.8314L10.5384 24.0819Z" fill="white"/>
</svg>
