<svg width="24" height="24" viewBox="0 0 24 24" fill="none" xmlns="http://www.w3.org/2000/svg">
<path d="M12 23.5C18.3513 23.5 23.5 18.3513 23.5 12C23.5 5.64873 18.3513 0.5 12 0.5C5.64873 0.5 0.5 5.64873 0.5 12C0.5 18.3513 5.64873 23.5 12 23.5Z" stroke="white"/>
<path d="M16.5547 13.4766C16.7839 13.4766 17.0039 13.5195 17.2148 13.6055C17.4258 13.6914 17.612 13.8151 17.7734 13.9766L19.4922 15.6953C19.6536 15.8568 19.7773 16.043 19.8633 16.2539C19.9492 16.4648 19.9922 16.6849 19.9922 16.9141C19.9922 17.1432 19.9492 17.3633 19.8633 17.5742C19.7773 17.7852 19.6536 17.9714 19.4922 18.1328L19.3828 18.2422C19.1016 18.5234 18.8438 18.7734 18.6094 18.9922C18.375 19.2109 18.1302 19.3945 17.875 19.543C17.6198 19.6914 17.3359 19.8047 17.0234 19.8828C16.7109 19.9609 16.3385 20 15.9062 20C15.2552 20 14.5859 19.8984 13.8984 19.6953C13.2109 19.4922 12.5273 19.2109 11.8477 18.8516C11.168 18.4922 10.5013 18.0651 9.84766 17.5703C9.19401 17.0755 8.57682 16.5352 7.99609 15.9492C7.41536 15.3633 6.88021 14.7435 6.39062 14.0898C5.90104 13.4362 5.47917 12.7695 5.125 12.0898C4.77083 11.4102 4.49479 10.7318 4.29688 10.0547C4.09896 9.3776 4 8.72135 4 8.08594C4 7.65365 4.03776 7.28385 4.11328 6.97656C4.1888 6.66927 4.30078 6.38802 4.44922 6.13281C4.59766 5.8776 4.77995 5.63411 4.99609 5.40234C5.21224 5.17057 5.46094 4.91406 5.74219 4.63281L5.86719 4.50781C6.02865 4.34635 6.21354 4.22135 6.42188 4.13281C6.63021 4.04427 6.85156 4 7.08594 4C7.3151 4 7.53516 4.04427 7.74609 4.13281C7.95703 4.22135 8.14323 4.34635 8.30469 4.50781L10.0234 6.22656C10.1849 6.38802 10.3086 6.57422 10.3945 6.78516C10.4805 6.99609 10.5234 7.21615 10.5234 7.44531C10.5234 7.67448 10.4844 7.87891 10.4062 8.05859C10.3281 8.23828 10.2318 8.40104 10.1172 8.54688C10.0026 8.69271 9.8763 8.82552 9.73828 8.94531C9.60026 9.0651 9.47396 9.18229 9.35938 9.29688C9.24479 9.41146 9.14844 9.52734 9.07031 9.64453C8.99219 9.76172 8.95312 9.88802 8.95312 10.0234C8.95312 10.2214 9.02344 10.3906 9.16406 10.5312L13.4688 14.8359C13.6094 14.9766 13.7786 15.0469 13.9766 15.0469C14.112 15.0469 14.2383 15.0078 14.3555 14.9297C14.4727 14.8516 14.5885 14.7552 14.7031 14.6406C14.8177 14.526 14.9349 14.3997 15.0547 14.2617C15.1745 14.1237 15.3073 13.9974 15.4531 13.8828C15.599 13.7682 15.7617 13.6719 15.9414 13.5938C16.1211 13.5156 16.3255 13.4766 16.5547 13.4766ZM15.9062 19C16.2812 19 16.5951 18.9648 16.8477 18.8945C17.1003 18.8242 17.3281 18.7227 17.5312 18.5898C17.7344 18.457 17.9323 18.2917 18.125 18.0938C18.3177 17.8958 18.5391 17.6719 18.7891 17.4219C18.9297 17.2812 19 17.112 19 16.9141C19 16.8203 18.9622 16.7096 18.8867 16.582C18.8112 16.4544 18.7135 16.3203 18.5938 16.1797C18.474 16.0391 18.3398 15.8945 18.1914 15.7461C18.043 15.5977 17.8971 15.457 17.7539 15.3242C17.6107 15.1914 17.4779 15.069 17.3555 14.957C17.2331 14.8451 17.138 14.7552 17.0703 14.6875C16.9297 14.5469 16.7578 14.4766 16.5547 14.4766C16.4193 14.4766 16.2943 14.5156 16.1797 14.5938C16.0651 14.6719 15.9505 14.7682 15.8359 14.8828C15.7214 14.9974 15.6029 15.1237 15.4805 15.2617C15.3581 15.3997 15.224 15.526 15.0781 15.6406C14.9323 15.7552 14.7695 15.8516 14.5898 15.9297C14.4102 16.0078 14.2057 16.0469 13.9766 16.0469C13.7474 16.0469 13.5273 16.0039 13.3164 15.918C13.1055 15.832 12.9193 15.7083 12.7578 15.5469L8.45312 11.2422C8.29167 11.0807 8.16797 10.8945 8.08203 10.6836C7.99609 10.4727 7.95312 10.2526 7.95312 10.0234C7.95312 9.79427 7.99219 9.58984 8.07031 9.41016C8.14844 9.23047 8.24479 9.06771 8.35938 8.92188C8.47396 8.77604 8.60026 8.64193 8.73828 8.51953C8.8763 8.39714 9.0026 8.27865 9.11719 8.16406C9.23177 8.04948 9.32812 7.9349 9.40625 7.82031C9.48438 7.70573 9.52344 7.58073 9.52344 7.44531C9.52344 7.24219 9.45312 7.07031 9.3125 6.92969C9.24479 6.86198 9.15495 6.76693 9.04297 6.64453C8.93099 6.52214 8.80859 6.38932 8.67578 6.24609C8.54297 6.10286 8.40234 5.95703 8.25391 5.80859C8.10547 5.66016 7.96094 5.52604 7.82031 5.40625C7.67969 5.28646 7.54557 5.1888 7.41797 5.11328C7.29036 5.03776 7.17969 5 7.08594 5C6.88802 5 6.71875 5.07031 6.57812 5.21094C6.32812 5.46094 6.10547 5.68229 5.91016 5.875C5.71484 6.06771 5.54818 6.26562 5.41016 6.46875C5.27214 6.67188 5.16797 6.89974 5.09766 7.15234C5.02734 7.40495 4.99219 7.71615 4.99219 8.08594C4.99219 8.66927 5.08724 9.27083 5.27734 9.89062C5.46745 10.5104 5.73047 11.1302 6.06641 11.75C6.40234 12.3698 6.79948 12.9805 7.25781 13.582C7.71615 14.1836 8.21615 14.7526 8.75781 15.2891C9.29948 15.8255 9.87109 16.3203 10.4727 16.7734C11.0742 17.2266 11.6836 17.6185 12.3008 17.9492C12.918 18.2799 13.5326 18.5378 14.1445 18.7227C14.7565 18.9076 15.3438 19 15.9062 19Z" fill="white"/>
</svg>
