<svg width="24" height="24" viewBox="0 0 24 24" fill="none" xmlns="http://www.w3.org/2000/svg">
<path d="M15.416 13.1074C15.5879 13.1074 15.7529 13.1396 15.9111 13.2041C16.0693 13.2686 16.209 13.3613 16.3301 13.4824L17.6191 14.7715C17.7402 14.8926 17.833 15.0322 17.8975 15.1904C17.9619 15.3486 17.9941 15.5137 17.9941 15.6855C17.9941 15.8574 17.9619 16.0225 17.8975 16.1807C17.833 16.3389 17.7402 16.4785 17.6191 16.5996L17.5371 16.6816C17.3262 16.8926 17.1328 17.0801 16.957 17.2441C16.7812 17.4082 16.5977 17.5459 16.4062 17.6572C16.2148 17.7686 16.002 17.8535 15.7676 17.9121C15.5332 17.9707 15.2539 18 14.9297 18C14.4414 18 13.9395 17.9238 13.4238 17.7715C12.9082 17.6191 12.3955 17.4082 11.8857 17.1387C11.376 16.8691 10.876 16.5488 10.3857 16.1777C9.89551 15.8066 9.43262 15.4014 8.99707 14.9619C8.56152 14.5225 8.16016 14.0576 7.79297 13.5674C7.42578 13.0771 7.10938 12.5771 6.84375 12.0674C6.57812 11.5576 6.37109 11.0488 6.22266 10.541C6.07422 10.0332 6 9.54102 6 9.06445C6 8.74023 6.02832 8.46289 6.08496 8.23242C6.1416 8.00195 6.22559 7.79102 6.33691 7.59961C6.44824 7.4082 6.58496 7.22559 6.74707 7.05176C6.90918 6.87793 7.0957 6.68555 7.30664 6.47461L7.40039 6.38086C7.52148 6.25977 7.66016 6.16602 7.81641 6.09961C7.97266 6.0332 8.13867 6 8.31445 6C8.48633 6 8.65137 6.0332 8.80957 6.09961C8.96777 6.16602 9.10742 6.25977 9.22852 6.38086L10.5176 7.66992C10.6387 7.79102 10.7314 7.93066 10.7959 8.08887C10.8604 8.24707 10.8926 8.41211 10.8926 8.58398C10.8926 8.75586 10.8633 8.90918 10.8047 9.04395C10.7461 9.17871 10.6738 9.30078 10.5879 9.41016C10.502 9.51953 10.4072 9.61914 10.3037 9.70898C10.2002 9.79883 10.1055 9.88672 10.0195 9.97266C9.93359 10.0586 9.86133 10.1455 9.80273 10.2334C9.74414 10.3213 9.71484 10.416 9.71484 10.5176C9.71484 10.666 9.76758 10.793 9.87305 10.8984L13.1016 14.127C13.207 14.2324 13.334 14.2852 13.4824 14.2852C13.584 14.2852 13.6787 14.2559 13.7666 14.1973C13.8545 14.1387 13.9414 14.0664 14.0273 13.9805C14.1133 13.8945 14.2012 13.7998 14.291 13.6963C14.3809 13.5928 14.4805 13.498 14.5898 13.4121C14.6992 13.3262 14.8213 13.2539 14.9561 13.1953C15.0908 13.1367 15.2441 13.1074 15.416 13.1074ZM14.9297 17.25C15.2109 17.25 15.4463 17.2236 15.6357 17.1709C15.8252 17.1182 15.9961 17.042 16.1484 16.9424C16.3008 16.8428 16.4492 16.7188 16.5938 16.5703C16.7383 16.4219 16.9043 16.2539 17.0918 16.0664C17.1973 15.9609 17.25 15.834 17.25 15.6855C17.25 15.6152 17.2217 15.5322 17.165 15.4365C17.1084 15.3408 17.0352 15.2402 16.9453 15.1348C16.8555 15.0293 16.7549 14.9209 16.6436 14.8096C16.5322 14.6982 16.4229 14.5928 16.3154 14.4932C16.208 14.3936 16.1084 14.3018 16.0166 14.2178C15.9248 14.1338 15.8535 14.0664 15.8027 14.0156C15.6973 13.9102 15.5684 13.8574 15.416 13.8574C15.3145 13.8574 15.2207 13.8867 15.1348 13.9453C15.0488 14.0039 14.9629 14.0762 14.877 14.1621C14.791 14.248 14.7021 14.3428 14.6104 14.4463C14.5186 14.5498 14.418 14.6445 14.3086 14.7305C14.1992 14.8164 14.0771 14.8887 13.9424 14.9473C13.8076 15.0059 13.6543 15.0352 13.4824 15.0352C13.3105 15.0352 13.1455 15.0029 12.9873 14.9385C12.8291 14.874 12.6895 14.7812 12.5684 14.6602L9.33984 11.4316C9.21875 11.3105 9.12598 11.1709 9.06152 11.0127C8.99707 10.8545 8.96484 10.6895 8.96484 10.5176C8.96484 10.3457 8.99414 10.1924 9.05273 10.0576C9.11133 9.92285 9.18359 9.80078 9.26953 9.69141C9.35547 9.58203 9.4502 9.48145 9.55371 9.38965C9.65723 9.29785 9.75195 9.20898 9.83789 9.12305C9.92383 9.03711 9.99609 8.95117 10.0547 8.86523C10.1133 8.7793 10.1426 8.68555 10.1426 8.58398C10.1426 8.43164 10.0898 8.30273 9.98438 8.19727C9.93359 8.14648 9.86621 8.0752 9.78223 7.9834C9.69824 7.8916 9.60645 7.79199 9.50684 7.68457C9.40723 7.57715 9.30176 7.46777 9.19043 7.35645C9.0791 7.24512 8.9707 7.14453 8.86523 7.05469C8.75977 6.96484 8.65918 6.8916 8.56348 6.83496C8.46777 6.77832 8.38477 6.75 8.31445 6.75C8.16602 6.75 8.03906 6.80273 7.93359 6.9082C7.74609 7.0957 7.5791 7.26172 7.43262 7.40625C7.28613 7.55078 7.16113 7.69922 7.05762 7.85156C6.9541 8.00391 6.87598 8.1748 6.82324 8.36426C6.77051 8.55371 6.74414 8.78711 6.74414 9.06445C6.74414 9.50195 6.81543 9.95312 6.95801 10.418C7.10059 10.8828 7.29785 11.3477 7.5498 11.8125C7.80176 12.2773 8.09961 12.7354 8.44336 13.1865C8.78711 13.6377 9.16211 14.0645 9.56836 14.4668C9.97461 14.8691 10.4033 15.2402 10.8545 15.5801C11.3057 15.9199 11.7627 16.2139 12.2256 16.4619C12.6885 16.71 13.1494 16.9033 13.6084 17.042C14.0674 17.1807 14.5078 17.25 14.9297 17.25Z" fill="#2C2C2C"/>
<circle cx="12" cy="12" r="11.5" stroke="#2C2C2C"/>
</svg>
