<svg width="112" height="16" viewBox="0 0 112 16" fill="none" xmlns="http://www.w3.org/2000/svg">
<g clip-path="url(#clip0)">
<path d="M99.5811 15.6764C99.4058 15.6764 99.2318 15.6217 99.0832 15.5143C98.8065 15.3137 98.6772 14.969 98.7525 14.6364L99.7818 10.1022L96.291 7.04082C96.0344 6.81682 95.9364 6.46207 96.0417 6.13748C96.1471 5.81349 96.4337 5.58412 96.7731 5.55275L101.392 5.13342L103.218 0.859999C103.353 0.546026 103.659 0.343262 104 0.343262C104.341 0.343262 104.647 0.546026 104.782 0.859266L106.608 5.13342L111.226 5.55275C111.566 5.58339 111.853 5.81349 111.958 6.13748C112.064 6.46146 111.966 6.81682 111.71 7.04082L108.219 10.1016L109.248 14.6356C109.323 14.969 109.194 15.3137 108.917 15.5137C108.641 15.7137 108.273 15.729 107.983 15.5543L104 13.1743L100.017 15.5557C99.8825 15.6356 99.7325 15.6764 99.5811 15.6764ZM104 12.149C104.151 12.149 104.301 12.1896 104.436 12.2696L108.195 14.5177L107.223 10.2382C107.154 9.9336 107.257 9.61559 107.493 9.40953L110.789 6.51884L106.428 6.12283C106.114 6.09414 105.844 5.89675 105.721 5.60743L104 1.57462L102.277 5.60805C102.155 5.89541 101.885 6.0928 101.572 6.12149L97.2105 6.51749L100.506 9.40819C100.743 9.61486 100.846 9.93225 100.776 10.2376L99.8051 14.517L103.564 12.2696C103.699 12.1896 103.849 12.149 104 12.149ZM101.357 5.21607C101.357 5.21607 101.357 5.2168 101.356 5.21741L101.357 5.21607ZM106.642 5.21411L106.643 5.21546C106.643 5.21472 106.643 5.21472 106.642 5.21411Z" fill="black"/>
<path d="M15.9583 6.04621C15.8535 5.70813 15.5662 5.46802 15.2262 5.43605L10.6082 4.99849L8.78207 0.538446C8.64742 0.211582 8.34077 0 8.00006 0C7.65936 0 7.35271 0.211582 7.21806 0.53921L5.39197 4.99849L0.77321 5.43605C0.433846 5.46878 0.147218 5.70813 0.0418691 6.04621C-0.0634801 6.38428 0.0338122 6.75509 0.290532 6.98884L3.78121 10.1833L2.75189 14.9147C2.67657 15.2626 2.80597 15.6222 3.08259 15.8308C3.23128 15.9429 3.40523 16 3.58065 16C3.7319 16 3.88193 15.9575 4.01657 15.8734L8.00006 13.389L11.9821 15.8734C12.2735 16.0563 12.6408 16.0396 12.9168 15.8308C13.1935 15.6215 13.3228 15.2618 13.2475 14.9147L12.2182 10.1833L15.7089 6.98947C15.9656 6.75509 16.0636 6.38492 15.9583 6.04621Z" fill="#FFC107"/>
<path d="M39.9583 6.13748C39.8536 5.81349 39.5662 5.58339 39.2262 5.55275L34.6082 5.13342L32.7821 0.859266C32.6474 0.546026 32.3408 0.343262 32.0001 0.343262C31.6594 0.343262 31.3527 0.546026 31.2181 0.859999L29.392 5.13342L24.7732 5.55275C24.4338 5.58412 24.1472 5.81349 24.0419 6.13748C23.9365 6.46146 24.0338 6.81682 24.2905 7.04082L27.7812 10.1022L26.7519 14.6364C26.6766 14.9697 26.806 15.3143 27.0826 15.5143C27.2313 15.6217 27.4052 15.6764 27.5807 15.6764C27.7319 15.6764 27.8819 15.6356 28.0166 15.5551L32.0001 13.1743L35.9821 15.5551C36.2735 15.7304 36.6408 15.7144 36.9168 15.5143C37.1936 15.3137 37.3228 14.969 37.2475 14.6364L36.2182 10.1022L39.7089 7.04143C39.9656 6.81682 40.0636 6.46207 39.9583 6.13748Z" fill="#FFC107"/>
<path d="M63.9583 6.13748C63.8536 5.81349 63.5662 5.58339 63.2262 5.55275L58.6082 5.13342L56.7821 0.859266C56.6474 0.546026 56.3408 0.343262 56.0001 0.343262C55.6594 0.343262 55.3527 0.546026 55.2181 0.859999L53.392 5.13342L48.7732 5.55275C48.4338 5.58412 48.1472 5.81349 48.0419 6.13748C47.9365 6.46146 48.0338 6.81682 48.2905 7.04082L51.7812 10.1022L50.7519 14.6364C50.6766 14.9697 50.806 15.3143 51.0826 15.5143C51.2313 15.6217 51.4052 15.6764 51.5807 15.6764C51.7319 15.6764 51.8819 15.6356 52.0166 15.5551L56.0001 13.1743L59.9821 15.5551C60.2735 15.7304 60.6408 15.7144 60.9168 15.5143C61.1936 15.3137 61.3228 14.969 61.2475 14.6364L60.2182 10.1022L63.7089 7.04143C63.9656 6.81682 64.0636 6.46207 63.9583 6.13748Z" fill="#FFC107"/>
<path d="M87.9583 6.13748C87.8536 5.81349 87.5662 5.58339 87.2262 5.55275L82.6082 5.13342L80.7821 0.859266C80.6474 0.546026 80.3408 0.343262 80.0001 0.343262C79.6594 0.343262 79.3527 0.546026 79.2181 0.859999L77.392 5.13342L72.7732 5.55275C72.4338 5.58412 72.1472 5.81349 72.0419 6.13748C71.9365 6.46146 72.0338 6.81682 72.2905 7.04082L75.7812 10.1022L74.7519 14.6364C74.6766 14.9697 74.806 15.3143 75.0826 15.5143C75.2313 15.6217 75.4052 15.6764 75.5807 15.6764C75.7319 15.6764 75.8819 15.6356 76.0166 15.5551L80.0001 13.1743L83.9821 15.5551C84.2735 15.7304 84.6408 15.7144 84.9168 15.5143C85.1936 15.3137 85.3228 14.969 85.2475 14.6364L84.2182 10.1022L87.7089 7.04143C87.9656 6.81682 88.0636 6.46207 87.9583 6.13748Z" fill="#FFC107"/>
</g>
<defs>
<clipPath id="clip0">
<rect width="112" height="16" fill="white"/>
</clipPath>
</defs>
</svg>
