<svg width="74" height="14" viewBox="0 0 74 14" fill="none" xmlns="http://www.w3.org/2000/svg"><path d="M9.526 4.358V.886H8.308L8.154 3H1.518L1.364.886H.146v3.472h.994c.682 1.596 1.116 3.705 1.302 6.328.038.607.248 1.087.63 1.442.392.355.915.532 1.568.532h3.654V4.358h1.232zm-2.982 0v6.944H5.032c-.317 0-.546-.065-.686-.196-.13-.13-.205-.364-.224-.7-.112-1.39-.266-2.548-.462-3.472a10.847 10.847 0 00-.854-2.576h3.738zm4.8 4.872c.513.55 1.386.826 2.618.826s2.104-.275 2.618-.826c.513-.55.77-1.484.77-2.8 0-1.316-.257-2.25-.77-2.8-.504-.541-1.377-.812-2.618-.812-1.232 0-2.105.27-2.618.812-.514.55-.77 1.484-.77 2.8 0 1.316.256 2.25.77 2.8zm3.892-1.008c-.224.317-.649.476-1.274.476-.626 0-1.05-.159-1.274-.476-.224-.308-.336-.905-.336-1.792 0-.877.112-1.475.336-1.792.224-.308.648-.462 1.274-.462.625 0 1.05.154 1.274.462.233.317.35.915.35 1.792 0 .887-.117 1.484-.35 1.792zm9.59 5.124l.365-1.33a3.745 3.745 0 00-1.05-.448 9.213 9.213 0 00-1.134-.196 6.039 6.039 0 01-1.036-.196c-.896-.252-1.447-.84-1.652-1.764a6.056 6.056 0 01-.182-1.022h.028c.158.252.317.457.476.616.168.168.43.317.784.448.354.13.784.196 1.288.196 1.017 0 1.736-.257 2.156-.77.43-.504.644-1.335.644-2.492 0-1.204-.243-2.1-.728-2.688-.486-.579-1.344-.868-2.576-.868-.616 0-1.134.075-1.554.224-.42.159-.747.35-.98.574-.234.233-.41.555-.532.966a5.89 5.89 0 00-.224 1.162 18.58 18.58 0 00-.042 1.4c0 1.577.168 2.772.504 3.584.336.821 1.012 1.39 2.03 1.708.252.084.765.187 1.54.308.784.13 1.41.327 1.876.588zm-2.56-5.026c-.663 0-1.102-.145-1.316-.434-.206-.29-.308-.798-.308-1.526 0-.83.112-1.4.336-1.708.224-.308.63-.462 1.218-.462.578 0 .98.154 1.204.462.224.308.336.873.336 1.694 0 .775-.103 1.297-.308 1.568-.206.27-.593.406-1.162.406zm5.026.196l-.154 1.204c1.203.224 2.342.336 3.415.336.887 0 1.54-.177 1.96-.532.42-.355.63-.975.63-1.862V3h-1.344l-.181 1.05c-.72-.803-1.592-1.204-2.619-1.204-.643 0-1.166.173-1.568.518-.4.355-.602.845-.602 1.47v.7c0 .55.178.975.532 1.274.355.299.855.448 1.498.448h2.576v.42c-.009.392-.098.653-.265.784-.169.13-.5.196-.995.196-.709 0-1.67-.047-2.883-.14zm1.232-3.192v-.266c0-.299.07-.513.21-.644.14-.13.368-.196.686-.196.68 0 1.353.27 2.015.812v1.064H29.25c-.27-.01-.462-.08-.573-.21-.103-.13-.154-.317-.154-.56zm11.025 1.232v-.042c.616-.047 1.06-.22 1.33-.518.27-.299.406-.733.406-1.302 0-.69-.215-1.162-.644-1.414-.42-.252-1.144-.378-2.17-.378-1.456 0-2.604.028-3.444.084V9.86c.746.056 1.764.084 3.052.084 1.11 0 1.876-.13 2.296-.392.43-.252.644-.733.644-1.442 0-.495-.117-.868-.35-1.12-.233-.252-.607-.397-1.12-.434zm-2.926.532h1.512c.485 0 .821.06 1.008.182.196.121.294.345.294.672 0 .29-.103.485-.308.588-.206.112-.579.168-1.12.168h-1.386v-1.61zm0-2.926h1.568c.523 0 .882.06 1.078.182.205.121.308.36.308.714 0 .345-.108.583-.322.714-.206.14-.579.21-1.12.21h-1.512v-1.82zM49.02 9.86V3h-1.71v5.6h-1.133c-.262 0-.448-.056-.56-.168-.103-.103-.173-.303-.21-.602-.215-1.624-.407-2.716-.575-3.276-.317-1.185-1.161-1.727-2.533-1.624l-.168 1.274c.373.065.639.154.797.266.16.112.29.299.392.56.197.597.364 1.633.505 3.108.056.579.237 1.008.545 1.288.308.29.766.434 1.372.434h3.276zm6.26-4.144h-2.8c.055-.597.219-.999.49-1.204.28-.196.727-.294 1.343-.294.7 0 1.522.056 2.464.168l.154-1.092c-.653-.308-1.596-.462-2.828-.462-1.241 0-2.123.275-2.646.826-.522.55-.784 1.48-.784 2.786 0 1.335.257 2.268.77 2.8.514.541 1.363.812 2.548.812 1.092 0 1.88-.2 2.366-.602.495-.392.742-.985.742-1.778.019-1.307-.588-1.96-1.82-1.96zm-2.843 1.19h2.366c.41 0 .616.266.616.798 0 .373-.098.635-.294.784-.196.15-.55.224-1.064.224-.606 0-1.022-.126-1.246-.378-.224-.243-.35-.719-.378-1.428zM65.034 9.86V3h-1.666v3.01h-2.996V3h-1.68v6.86h1.68V7.256h2.996V9.86h1.666zm2.419-.63c.513.55 1.386.826 2.618.826s2.105-.275 2.618-.826c.513-.55.77-1.484.77-2.8 0-1.316-.257-2.25-.77-2.8-.504-.541-1.377-.812-2.618-.812-1.232 0-2.105.27-2.618.812-.513.55-.77 1.484-.77 2.8 0 1.316.257 2.25.77 2.8zm3.892-1.008c-.224.317-.649.476-1.274.476s-1.05-.159-1.274-.476c-.224-.308-.336-.905-.336-1.792 0-.877.112-1.475.336-1.792.224-.308.649-.462 1.274-.462s1.05.154 1.274.462c.233.317.35.915.35 1.792 0 .887-.117 1.484-.35 1.792z" fill="#fff"/></svg>