<svg width="20" height="20" viewBox="0 0 20 20" fill="none" xmlns="http://www.w3.org/2000/svg"><g clip-path="url(#clip0)"><path d="M13.792 10.833c.625 0 1.175-.341 1.458-.858l2.983-5.408a.83.83 0 00-.725-1.234H5.175l-.783-1.666H1.667v1.666h1.666l3 6.325-1.125 2.034c-.608 1.116.192 2.475 1.459 2.475h10V12.5h-10l.916-1.667h6.209zM5.967 5h10.125l-2.3 4.167h-5.85L5.967 5zm.7 10c-.917 0-1.659.75-1.659 1.667 0 .916.742 1.666 1.659 1.666.916 0 1.666-.75 1.666-1.666 0-.917-.75-1.667-1.666-1.667zM15 15c-.917 0-1.658.75-1.658 1.667 0 .916.741 1.666 1.658 1.666.917 0 1.667-.75 1.667-1.666 0-.917-.75-1.667-1.667-1.667z" fill="#fff"/></g><defs><clipPath id="clip0"><path fill="#fff" d="M0 0h20v20H0z"/></clipPath></defs></svg>