<svg width="14" height="14" viewBox="0 0 14 14" fill="none" xmlns="http://www.w3.org/2000/svg"><path d="M9.603 7.492a6.994 6.994 0 013.188 2.581c.383.57.68 1.187.892 1.854.211.668.317 1.358.317 2.073h-1.4c0-.766-.148-1.49-.443-2.171a5.695 5.695 0 00-1.203-1.783A5.696 5.696 0 009.17 8.843 5.404 5.404 0 007 8.4c-.766 0-1.49.148-2.171.443a5.695 5.695 0 00-1.783 1.203 5.695 5.695 0 00-1.203 1.783A5.404 5.404 0 001.4 14H0c0-.715.106-1.405.317-2.073a7.196 7.196 0 01.892-1.854 6.99 6.99 0 013.188-2.58A4.096 4.096 0 013.22 6.031 4.151 4.151 0 012.8 4.2c0-.576.111-1.12.334-1.63a4.29 4.29 0 01.902-1.334c.38-.38.824-.68 1.334-.902A4.035 4.035 0 017 0c.576 0 1.12.111 1.63.334.51.222.955.523 1.334.902.38.38.68.824.902 1.334.223.51.334 1.054.334 1.63 0 .642-.14 1.252-.421 1.832a4.096 4.096 0 01-1.176 1.46zM4.2 4.2c0 .386.075.75.224 1.088a2.87 2.87 0 001.488 1.488C6.25 6.926 6.614 7 7 7c.38 0 .74-.075 1.083-.224.343-.15.64-.35.891-.602.252-.251.452-.547.602-.886.15-.339.224-.702.224-1.088 0-.38-.075-.74-.224-1.083-.15-.343-.35-.64-.602-.891a2.868 2.868 0 00-.891-.602A2.68 2.68 0 007 1.4c-.386 0-.75.075-1.088.224-.34.15-.635.35-.886.602a2.868 2.868 0 00-.602.891A2.68 2.68 0 004.2 4.2z" fill="#fff"/></svg>