<svg width="16" height="16" viewBox="0 0 16 16" fill="none" xmlns="http://www.w3.org/2000/svg"><g clip-path="url(#clip0)"><path d="M7.376 12.445l-7.12-7.12A.869.869 0 010 4.704c0-.234.09-.454.256-.618l.524-.525a.876.876 0 011.238 0l5.979 5.98 5.985-5.986a.87.87 0 01.62-.256.87.87 0 01.618.256l.524.524a.87.87 0 01.256.619c0 .234-.09.454-.256.619l-7.126 7.127a.87.87 0 01-.62.255.87.87 0 01-.622-.255z" fill="#fff"/></g><defs><clipPath id="clip0"><path transform="matrix(0 1 1 0 0 0)" fill="#fff" d="M0 0h16v16H0z"/></clipPath></defs></svg>