<svg width="16" height="16" viewBox="0 0 16 16" fill="none" xmlns="http://www.w3.org/2000/svg"><path d="M12.555 9.477a1.733 1.733 0 011.218.5l1.72 1.718a1.734 1.734 0 01.5 1.219 1.734 1.734 0 01-.5 1.219l-.11.11c-.281.28-.54.53-.774.75a4.098 4.098 0 01-.734.55 3.27 3.27 0 01-.852.34 4.656 4.656 0 01-1.117.117 7.07 7.07 0 01-2.008-.305 11.143 11.143 0 01-2.05-.843c-.68-.36-1.347-.787-2-1.282a17.777 17.777 0 01-3.457-3.48c-.49-.654-.912-1.32-1.266-2-.354-.68-.63-1.358-.828-2.035A7.004 7.004 0 010 4.085c0-.431.038-.801.113-1.108.076-.308.188-.589.336-.844.149-.255.33-.499.547-.73.216-.232.465-.489.746-.77l.125-.125a1.74 1.74 0 01.555-.375A1.68 1.68 0 013.086 0a1.729 1.729 0 011.219.508l1.718 1.719c.162.161.286.347.372.558.085.211.128.431.128.66 0 .23-.039.434-.117.614a2.19 2.19 0 01-.289.488c-.114.146-.24.279-.379.398-.138.12-.264.237-.379.352-.114.114-.21.23-.289.348a.692.692 0 00.094.887l4.305 4.304a.692.692 0 00.886.094c.118-.078.233-.175.348-.29a7 7 0 00.352-.378c.12-.138.252-.265.398-.38.146-.114.309-.21.488-.288.18-.078.384-.117.614-.117zM11.906 15c.375 0 .69-.035.942-.105.252-.07.48-.172.683-.305.203-.133.401-.298.594-.496.193-.198.414-.422.664-.672.14-.14.211-.31.211-.508a.68.68 0 00-.113-.332 2.936 2.936 0 00-.293-.402 7.445 7.445 0 00-.403-.434 16.81 16.81 0 00-.437-.422 81.561 81.561 0 00-.399-.367 9.26 9.26 0 01-.285-.27.701.701 0 00-.89-.093c-.115.078-.23.174-.344.289-.115.114-.233.24-.356.379a3.078 3.078 0 01-.402.379 2.214 2.214 0 01-.488.289c-.18.078-.384.117-.613.117a1.734 1.734 0 01-1.22-.5L4.454 7.242a1.733 1.733 0 01-.5-1.219c0-.229.04-.433.117-.613.078-.18.175-.342.29-.488.114-.146.24-.28.378-.402.138-.123.265-.241.38-.356.114-.115.21-.23.288-.344a.701.701 0 00-.094-.89 9.344 9.344 0 01-.269-.285 81.785 81.785 0 00-.367-.399 16.81 16.81 0 00-.422-.437 7.433 7.433 0 00-.434-.403 2.932 2.932 0 00-.402-.293A.68.68 0 003.086 1a.692.692 0 00-.508.21l-.668.665a3.98 3.98 0 00-.5.594 2.307 2.307 0 00-.312.683c-.07.253-.106.564-.106.934 0 .583.095 1.185.285 1.805.19.62.453 1.24.79 1.859a14.1 14.1 0 001.19 1.832c.46.602.96 1.17 1.5 1.707a16.799 16.799 0 001.716 1.484c.601.454 1.21.845 1.828 1.176.617.33 1.232.589 1.844.774a6.08 6.08 0 001.761.277z" fill="#000"/></svg>