<svg width="48" height="48" viewBox="0 0 48 48" fill="none" xmlns="http://www.w3.org/2000/svg"><path d="M33.09 26c1.499 0 2.818-.82 3.498-2.06l7.157-12.98c.74-1.32-.22-2.96-1.74-2.96H12.418l-1.88-4H4v4h3.999l7.197 15.18-2.7 4.88c-1.459 2.68.46 5.94 3.5 5.94h23.99v-4h-23.99l2.199-4h14.894zM14.315 12h24.291L33.09 22H19.054l-4.738-10zm1.68 24c-2.2 0-3.979 1.8-3.979 4s1.78 4 3.979 4 3.998-1.8 3.998-4-1.8-4-3.998-4zm19.992 0c-2.2 0-3.978 1.8-3.978 4s1.779 4 3.978 4c2.2 0 3.999-1.8 3.999-4s-1.8-4-3.999-4z" fill="#252525"/></svg>