<svg width="24" height="24" viewBox="0 0 24 24" fill="none" xmlns="http://www.w3.org/2000/svg"><g clip-path="url(#clip0)"><path d="M12 0c6.627 0 12 5.373 12 12 0 6.628-5.373 12-12 12S0 18.628 0 12C-.019 5.392 5.323.02 11.932 0H12z" fill="#3BB54A"/><path d="M18.647 8.693l-8.523 8.522-4.772-4.738 1.943-1.91 2.83 2.796 6.579-6.58 1.943 1.91z" fill="#fff"/><g clip-path="url(#clip1)"><path d="M20.484 3.53c4.682 4.686 4.679 12.28-.006 16.96-4.686 4.682-12.28 4.68-16.96-.006-4.68-4.683-4.68-12.271 0-16.954 4.654-4.685 12.226-4.71 16.911-.055l.055.055z" fill="#D7443E"/><path d="M17.964 8.13l-3.884 3.884 3.884 3.884-2.078 2.078-3.884-3.884-3.885 3.884-2.078-2.078 3.884-3.884L6.04 8.13l2.078-2.078 3.884 3.884 3.885-3.884 2.078 2.078z" fill="#fff"/></g></g><defs><clipPath id="clip0"><path fill="#fff" d="M0 0h24v24H0z"/></clipPath><clipPath id="clip1"><path fill="#fff" d="M0 0h24v24H0z"/></clipPath></defs></svg>