<svg width="22" height="22" viewBox="0 0 22 22" fill="none" xmlns="http://www.w3.org/2000/svg"><path d="M15.09 11.773a10.995 10.995 0 015.01 4.057 11.305 11.305 0 011.402 2.913C21.834 19.791 22 20.877 22 22h-2.2a8.49 8.49 0 00-.696-3.412 8.952 8.952 0 00-1.89-2.801 8.952 8.952 0 00-2.802-1.89A8.49 8.49 0 0011 13.2a8.49 8.49 0 00-3.412.696 8.951 8.951 0 00-2.801 1.89 8.95 8.95 0 00-1.89 2.802A8.491 8.491 0 002.2 22H0c0-1.123.166-2.209.498-3.257.333-1.048.8-2.02 1.401-2.913a10.993 10.993 0 015.01-4.056 6.437 6.437 0 01-1.847-2.295A6.523 6.523 0 014.4 6.6c0-.905.175-1.759.524-2.56a6.742 6.742 0 011.418-2.098A6.742 6.742 0 018.44.524 6.341 6.341 0 0111 0a6.34 6.34 0 012.56.524c.803.35 1.502.822 2.098 1.418a6.743 6.743 0 011.418 2.097c.35.802.524 1.656.524 2.561 0 1.008-.22 1.968-.662 2.879a6.437 6.437 0 01-1.847 2.294zM6.6 6.6c0 .607.117 1.177.352 1.71.235.533.55.997.946 1.392.395.396.859.71 1.392.946A4.192 4.192 0 0011 11c.596 0 1.163-.117 1.702-.352a4.506 4.506 0 001.4-.946c.396-.395.71-.859.946-1.392A4.192 4.192 0 0015.4 6.6a4.21 4.21 0 00-.352-1.702 4.505 4.505 0 00-.946-1.4 4.506 4.506 0 00-1.4-.946A4.211 4.211 0 0011 2.2a4.19 4.19 0 00-1.71.352 4.52 4.52 0 00-1.392.946c-.396.395-.71.862-.946 1.4A4.21 4.21 0 006.6 6.6z" fill="#fff"/></svg>