<svg width="20" height="26" viewBox="0 0 20 26" fill="none" xmlns="http://www.w3.org/2000/svg"><path d="M19.657 9.09l-5.004-1.94a4.934 4.934 0 00-6.919-6.018A4.932 4.932 0 005.347 7.15L.343 9.09A.538.538 0 000 9.592V21.2a.539.539 0 00.344.503l9.461 3.667a.54.54 0 00.195.037.532.532 0 00.192-.04l.003.003 9.462-3.668A.538.538 0 0020 21.2V9.592a.54.54 0 00-.343-.502zm-1.684.502l-1.747.677-2.895-1.114c.33-.304.617-.65.854-1.03l3.788 1.467zm-5.701.31l2.461.946-1.39.538-2.549-.995a4.9 4.9 0 001.478-.49zm1.675 2.405l1.809-.7v2.243l-.303-.198a.539.539 0 00-.686.082l-.82.87v-2.297zM10 1.672a3.855 3.855 0 110 7.711 3.855 3.855 0 010-7.71zM6.123 8.565l-.72-.282.412-.16c.095.153.197.3.308.443v-.001zm-2.206.294l7.94 3.104-1.857.72-7.973-3.091 1.89-.733zM1.077 20.83V10.378l8.384 3.25v10.454l-8.384-3.25zm9.461 3.25V13.63l2.332-.905v3.237a.54.54 0 00.93.37l1.442-1.53.758.492a.538.538 0 00.831-.451V11.19l2.092-.81v10.45l-8.385 3.25z" fill="#fff"/></svg>