<svg width="24" height="24" viewBox="0 0 24 24" fill="none" xmlns="http://www.w3.org/2000/svg"><path d="M15.416 13.107a1.299 1.299 0 01.914.375l1.29 1.29a1.301 1.301 0 01.278 1.41 1.259 1.259 0 01-.279.418l-.082.082c-.21.21-.404.398-.58.562-.176.164-.36.302-.55.413a2.436 2.436 0 01-.64.255 3.491 3.491 0 01-.837.088 5.28 5.28 0 01-1.506-.229 8.363 8.363 0 01-1.538-.632c-.51-.27-1.01-.59-1.5-.961a13.337 13.337 0 01-2.593-2.61c-.367-.49-.684-.99-.95-1.5a8.413 8.413 0 01-.62-1.527c-.149-.508-.223-1-.223-1.477 0-.324.028-.601.085-.832.057-.23.14-.441.252-.632.111-.192.248-.374.41-.548.162-.174.349-.366.56-.577L7.4 6.38c.121-.121.26-.215.416-.281.157-.067.323-.1.498-.1a1.297 1.297 0 01.914.38l1.29 1.29a1.3 1.3 0 01.287 1.374 1.66 1.66 0 01-.217.366c-.086.11-.18.21-.284.299a5.54 5.54 0 00-.284.264 1.724 1.724 0 00-.217.26.519.519 0 00.07.665l3.229 3.229a.52.52 0 00.665.07c.088-.058.174-.13.26-.216.086-.086.174-.181.264-.285.09-.103.19-.198.299-.284.11-.086.231-.158.366-.217.135-.058.288-.088.46-.088zm-.486 4.143c.28 0 .516-.026.706-.08.19-.052.36-.128.512-.228.153-.1.301-.223.446-.372.144-.148.31-.316.498-.504a.52.52 0 00.158-.38.509.509 0 00-.085-.25 2.187 2.187 0 00-.22-.301 5.547 5.547 0 00-.301-.325 11.858 11.858 0 00-.329-.317l-.298-.275a7.023 7.023 0 01-.214-.202.526.526 0 00-.668-.07 1.76 1.76 0 00-.258.216c-.086.086-.175.18-.267.284a2.314 2.314 0 01-.301.284c-.11.086-.232.159-.367.217a1.143 1.143 0 01-.46.088 1.3 1.3 0 01-.914-.375L9.34 11.432a1.3 1.3 0 01-.287-1.374c.058-.135.13-.257.217-.367.085-.109.18-.21.284-.301.103-.092.198-.181.284-.267a1.81 1.81 0 00.217-.258.526.526 0 00-.07-.668 7 7 0 01-.203-.214 60.995 60.995 0 00-.275-.298c-.1-.108-.205-.217-.317-.329a5.572 5.572 0 00-.325-.301 2.198 2.198 0 00-.302-.22.51.51 0 00-.249-.085.52.52 0 00-.38.158l-.501.498a2.985 2.985 0 00-.375.446 1.73 1.73 0 00-.235.512 2.65 2.65 0 00-.079.7c0 .438.071.89.214 1.354.143.465.34.93.592 1.395.252.464.55.922.893 1.373a12.606 12.606 0 002.411 2.394c.452.34.909.634 1.372.882.462.248.923.441 1.382.58.46.139.9.208 1.322.208z" fill="#2C2C2C"/><circle cx="12" cy="12" r="11.5" stroke="#2C2C2C"/></svg>