<svg width="112" height="16" viewBox="0 0 112 16" fill="none" xmlns="http://www.w3.org/2000/svg"><g clip-path="url(#clip0)"><path d="M99.581 15.676a.85.85 0 01-.829-1.04l1.03-4.534-3.491-3.061a.85.85 0 01.482-1.488l4.619-.42L103.218.86a.85.85 0 011.564 0l1.826 4.273 4.618.42a.85.85 0 01.484 1.488l-3.491 3.06 1.029 4.535a.85.85 0 01-1.265.918L104 13.174l-3.983 2.382a.852.852 0 01-.436.12zM104 12.15c.151 0 .301.04.436.12l3.759 2.249-.972-4.28a.85.85 0 01.27-.828l3.296-2.891-4.361-.396a.85.85 0 01-.707-.516L104 1.575l-1.723 4.033a.849.849 0 01-.705.513l-4.362.396 3.296 2.891c.237.207.34.524.27.83l-.97 4.279 3.758-2.247a.853.853 0 01.436-.121zm-2.643-6.933l-.001.001h.001zm5.285-.002l.001.001h-.001z" fill="#000"/><path d="M15.958 6.046a.857.857 0 00-.732-.61l-4.618-.438L8.782.538A.85.85 0 008 0a.85.85 0 00-.782.54L5.392 4.997l-4.619.438a.859.859 0 00-.731.61.912.912 0 00.249.943l3.49 3.194-1.03 4.732a.907.907 0 00.332.916.82.82 0 00.934.043L8 13.388l3.982 2.484a.818.818 0 00.935-.042.908.908 0 00.33-.916l-1.029-4.732 3.49-3.194a.913.913 0 00.25-.943zm24 .091a.849.849 0 00-.732-.584l-4.618-.42L32.782.86a.85.85 0 00-1.564.001l-1.826 4.273-4.619.42a.85.85 0 00-.482 1.488l3.49 3.061-1.03 4.534a.85.85 0 001.266.92L32 13.173l3.982 2.381a.85.85 0 001.265-.919l-1.029-4.534 3.49-3.06a.85.85 0 00.25-.905zm24 0a.849.849 0 00-.732-.584l-4.618-.42L56.782.86a.85.85 0 00-1.564.001l-1.826 4.273-4.619.42a.85.85 0 00-.483 1.488l3.491 3.061-1.03 4.534a.85.85 0 001.266.92L56 13.173l3.982 2.381a.85.85 0 001.265-.919l-1.029-4.534 3.49-3.06a.85.85 0 00.25-.905zm24 0a.849.849 0 00-.732-.584l-4.618-.42L80.782.86a.85.85 0 00-1.564.001l-1.826 4.273-4.619.42a.85.85 0 00-.483 1.488l3.491 3.061-1.03 4.534a.85.85 0 001.266.92L80 13.173l3.982 2.381a.85.85 0 001.265-.919l-1.029-4.534 3.49-3.06a.85.85 0 00.25-.905z" fill="#FFC107"/></g><defs><clipPath id="clip0"><path fill="#fff" d="M0 0h112v16H0z"/></clipPath></defs></svg>